<?xml version="1.0" encoding="UTF-8"?>
<svg version="1.1" viewBox="0 0 1016 804" width="1280" height="1280" xmlns="http://www.w3.org/2000/svg">
<path transform="translate(456,202)" d="m0 0h25l18 2 25 5 20 6 23 10 17 9 12 8 13 10 14 12 11 11 11 14 11 16 11 19 8 17 9 27 5 25 2 17v34l-4 27-8 28-8 19-12 23-8 12-10 13-13 15-13 12-14 11-13 9-19 11-17 8-21 7-25 6-26 3-14 1-31-3-20-4-20-6-16-6-16-8-20-12-16-12-15-13-9-9-9-11-8-10-13-21-8-16-6-14-6-18-5-22-2-12-1-11v-39l4-24 6-22 8-21 11-21 11-17 11-15 14-15 8-8 11-9 13-10 24-14 26-11 15-5 29-6zm-1 65-22 3-20 6-16 7-14 8-14 10-12 11-13 14-14 21-10 21-5 15-4 17-1 9v27l3 22 6 21 7 16 11 19 9 12 9 10 7 7 17 13 15 9 17 8 19 6 18 3 10 1h20l22-3 15-4 17-6 20-11 14-10 15-13 10-11 11-16 9-16 6-14 6-21 3-21v-22l-3-22-6-21-8-18-7-13-10-14-12-14-7-7-17-13-21-12-15-6-17-5-21-3z" fill="#C3A98A"/>
<path transform="translate(461,293)" d="m0 0h14l22 3 15 4 12 5 11 6 12 8 11 9 7 7 9 11 9 14 7 15 5 15 3 14 2 15v14l-3 21-5 16-6 15-9 15-9 11-16 16-14 10-16 8-15 6-17 4-25 2-19-2-15-3-25-10-18-12-10-9-14-14-10-15-9-19-5-15-3-15-1-9v-22l3-17 5-16 8-18 9-14 8-10 14-14 21-14 14-7 16-5 17-3zm2 38-1 1-1 21-9 3-11 6-8 8-5 11-1 6v8l3 10 6 9 13 10 26 12 8 6 6 8 1 3v10l-4 8-6 5-8 3-5 1h-8l-15-3-11-5-4 1-3 9v5l10 5 23 5 1 23h15v-24l11-3 8-4 8-7 6-10 3-10v-11l-4-13-7-9-8-6-23-12-12-7-5-4-4-8v-10l5-8 10-5h13l12 2 9 4 4-1 5-11-1-3-12-5-16-3-1-21z" fill="#C3A98A"/>
<path transform="translate(157,452)" d="m0 0h7l6 3 4 11 6 29 7 25 9 24 11 23 13 21 12 17 8 10 11 12 2 4h2l7 8 7 7 11 9 13 10 24 16 32 16 20 8 35 10 22 4 29 2h25l19-1 29-4 30-8 23-8 24-11 18-10 21-14 16-13 10-9 20-20 9-11 12-15 16-26 8-16 5-11 9-24 7-25 6-27 4-6 6-2 9 2 6 5 1 8-5 26-9 31-11 28-10 20-12 20-11 16-9 12-12 14-15 16-13 12-16 13-16 11-21 13-22 12-19 8-18 6-38 10-27 4-16 1h-32l-28-2-25-4-24-6-30-10-21-9-23-12-11-7-12-8-16-12-14-12-30-30-11-14-11-15-10-16-9-16-12-25-10-28-7-26-4-24v-13l5-5z" fill="#C3A98A"/>
<path transform="translate(438,103)" d="m0 0h59l27 3 25 6 27 8 21 9 23 11 16 9 12 8 14 10 13 10 10 9 15 14 12 13 11 13 13 18 9 15 10 17 13 28 8 22 8 30 4 22v11l-5 5-2 1h-10l-6-4-3-8-8-35-6-19-8-21-13-27-12-20-10-14-11-14-8-8-7-8-7-7-8-7-12-10-16-12-15-10-22-12-20-9-19-7-18-5-21-5-21-3-9-1h-46l-31 4-25 6-27 9-26 11-23 13-16 11-12 9-16 13-24 24-9 11-13 17-15 25-8 15-8 19-8 22-6 24-5 27-3 7-4 2h-8l-8-4-2-3v-15l5-27 7-25 10-26 12-25 10-17 7-11 14-19 11-13 9-10 16-16 11-9 12-10 14-10 17-11 24-13 19-9 19-7 21-6 36-7z" fill="#C3A98A"/>
</svg>
